<svg class="animated" id="freepik_stories-working-late" xmlns="http://www.w3.org/2000/svg" viewBox="0 0 500 500" version="1.1" xmlns:xlink="http://www.w3.org/1999/xlink" xmlns:svgjs="http://svgjs.com/svgjs"><style>svg#freepik_stories-working-late:not(.animated) .animable {opacity: 0;}svg#freepik_stories-working-late.animated #freepik--background-simple--inject-12 {animation: 6s Infinite  linear floating;animation-delay: 0s;}            @keyframes floating {                0% {                    opacity: 1;                    transform: translateY(0px);                }                50% {                    transform: translateY(-10px);                }                100% {                    opacity: 1;                    transform: translateY(0px);                }            }        </style><g id="freepik--background-simple--inject-12" class="animable animator-active" style="transform-origin: 250.001px 200.801px;"><path d="M431.53,201c-6.18-37-33.08-55.83-65.62-67.22-22.56-7.9-43.62-16.27-64.32-27.69-22.53-12.43-41.84-29.75-64.76-41.71-19.41-10.14-41.58-17.16-64.45-13.54-18.22,2.89-35.71,12.44-50.58,24.86-34.74,29-55.85,74.8-54.35,117.9,1.56,45,26.07,83.84,57.57,112.17,19.44,17.49,42.15,31.68,67.4,39.94,22.18,7.25,113.16,12.59,162.17-12.68C400.45,309.35,439.76,250.35,431.53,201Z" style="fill: rgb(235, 96, 29); transform-origin: 250.001px 200.801px;" id="elom1wemvw3h" class="animable"></path><g id="el71p6zpldm76"><path d="M431.53,201c-6.18-37-33.08-55.83-65.62-67.22-22.56-7.9-43.62-16.27-64.32-27.69-22.53-12.43-41.84-29.75-64.76-41.71-19.41-10.14-41.58-17.16-64.45-13.54-18.22,2.89-35.71,12.44-50.58,24.86-34.74,29-55.85,74.8-54.35,117.9,1.56,45,26.07,83.84,57.57,112.17,19.44,17.49,42.15,31.68,67.4,39.94,22.18,7.25,113.16,12.59,162.17-12.68C400.45,309.35,439.76,250.35,431.53,201Z" style="fill: rgb(255, 255, 255); opacity: 0.6; transform-origin: 250.001px 200.801px;" class="animable"></path></g></g><g id="freepik--table-line--inject-12" class="animable" style="transform-origin: 228.485px 362.815px;"><line id="freepik--table-line--inject-12" x1="127.2" y1="401.55" x2="329.77" y2="324.08" style="fill: none; stroke: rgb(38, 50, 56); stroke-linecap: round; stroke-linejoin: round; transform-origin: 228.485px 362.815px;" class="animable"></line></g><g id="freepik--Night--inject-12" class="animable" style="transform-origin: 112.55px 155.505px;"><g id="freepik--night--inject-12" class="animable" style="transform-origin: 112.55px 155.505px;"><path d="M134.76,171.3a24.46,24.46,0,1,1-10.6-46.6,25.24,25.24,0,0,0,10.6,46.6Z" style="fill: rgb(38, 50, 56); transform-origin: 117.332px 149.16px;" id="elvd8mw65sowg" class="animable"></path><polygon points="143.18 125.98 142.2 123.47 139.58 122.85 141.67 121.15 141.44 118.46 143.71 119.92 146.2 118.88 145.51 121.48 147.27 123.52 144.58 123.68 143.18 125.98" style="fill: rgb(38, 50, 56); transform-origin: 143.425px 122.22px;" id="el44c70oava1w" class="animable"></polygon><polygon points="155.81 151.28 154.4 151.59 153.85 152.92 153.12 151.67 151.68 151.57 152.64 150.49 152.3 149.09 153.62 149.67 154.85 148.91 154.71 150.35 155.81 151.28" style="fill: rgb(38, 50, 56); transform-origin: 153.745px 150.915px;" id="elqad5813zdnn" class="animable"></polygon><polygon points="109.27 190.91 107.86 191.22 107.31 192.55 106.58 191.31 105.14 191.2 106.1 190.12 105.76 188.72 107.08 189.3 108.31 188.54 108.17 189.98 109.27 190.91" style="fill: rgb(38, 50, 56); transform-origin: 107.205px 190.545px;" id="elb0zgv7xs9yd" class="animable"></polygon><polygon points="74.91 192.45 72.84 189.57 69.29 189.64 71.39 186.78 70.22 183.43 73.6 184.54 76.42 182.39 76.41 185.94 79.32 187.97 75.94 189.05 74.91 192.45" style="fill: rgb(38, 50, 56); transform-origin: 74.305px 187.42px;" id="elnzupe3wq8q" class="animable"></polygon></g></g><g id="freepik--Paper--inject-12" class="animable" style="transform-origin: 401.82px 409.332px;"><g id="freepik--paper--inject-12" class="animable" style="transform-origin: 401.82px 409.332px;"><polygon points="354.06 392.99 356.1 422.68 401.75 451.45 450.87 419.35 459.1 391.97 397.06 372.15 354.06 392.99" style="fill: rgb(235, 96, 29); transform-origin: 406.58px 411.8px;" id="ellb5xvkir39d" class="animable"></polygon><polygon points="352.57 389.99 389.64 369.18 459.26 391.28 403.85 425.42 352.57 389.99" style="fill: rgb(255, 255, 255); stroke: rgb(38, 50, 56); stroke-linecap: round; stroke-linejoin: round; transform-origin: 405.915px 397.3px;" id="elslqbs2s12m" class="animable"></polygon><polyline points="353.76 389.46 356.1 422.68 401.83 451.6 403.85 425.42" style="fill: none; stroke: rgb(38, 50, 56); stroke-linecap: round; stroke-linejoin: round; transform-origin: 378.805px 420.53px;" id="elyfqvpcoc35a" class="animable"></polyline><polyline points="401.83 451.6 450.68 419.16 459.26 391.28" style="fill: none; stroke: rgb(38, 50, 56); stroke-linecap: round; stroke-linejoin: round; transform-origin: 430.545px 421.44px;" id="elbmfix1vyizn" class="animable"></polyline><path d="M344.38,389.07l59.79,31.27,51.72-34.13s-60.58-18.75-61.75-19.14S344.38,389.07,344.38,389.07Z" style="fill: rgb(255, 255, 255); stroke: rgb(38, 50, 56); stroke-miterlimit: 10; transform-origin: 400.135px 393.702px;" id="elnnfqkx6r11j" class="animable"></path><line x1="401.53" y1="413.11" x2="441" y2="386.92" style="fill: none; stroke: rgb(38, 50, 56); stroke-linecap: round; stroke-linejoin: round; transform-origin: 421.265px 400.015px;" id="elvsluiujzkjh" class="animable"></line><line x1="397.42" y1="410.37" x2="436.9" y2="384.19" style="fill: none; stroke: rgb(38, 50, 56); stroke-linecap: round; stroke-linejoin: round; transform-origin: 417.16px 397.28px;" id="elfdx9bet6zc7" class="animable"></line><line x1="391.37" y1="408.61" x2="430.84" y2="382.43" style="fill: none; stroke: rgb(38, 50, 56); stroke-linecap: round; stroke-linejoin: round; transform-origin: 411.105px 395.52px;" id="elzhk84zca91j" class="animable"></line><line x1="386.68" y1="406.07" x2="426.15" y2="379.89" style="fill: none; stroke: rgb(38, 50, 56); stroke-linecap: round; stroke-linejoin: round; transform-origin: 406.415px 392.98px;" id="elo6b57a13k5" class="animable"></line><line x1="384.48" y1="425.14" x2="377.93" y2="420.91" style="fill: none; stroke: rgb(38, 50, 56); stroke-linecap: round; stroke-linejoin: round; transform-origin: 381.205px 423.025px;" id="elw0v749kqdfm" class="animable"></line><line x1="432.28" y1="418.91" x2="444.17" y2="411.91" style="fill: none; stroke: rgb(38, 50, 56); stroke-linecap: round; stroke-linejoin: round; transform-origin: 438.225px 415.41px;" id="eltfy82v4nmk" class="animable"></line><line x1="425.17" y1="430.03" x2="432.72" y2="425.8" style="fill: none; stroke: rgb(38, 50, 56); stroke-linecap: round; stroke-linejoin: round; transform-origin: 428.945px 427.915px;" id="eljcw5exgukd" class="animable"></line></g></g><g id="freepik--Plant--inject-12" class="animable" style="transform-origin: 131.845px 355.195px;"><path id="freepik--plant--inject-12" d="M139.89,366.58l.09,0-8.6,5V350.13l3.54-2.48L146.18,340c20.46,0,24-18.53,24-18.53-25.16-1.44-25.41,15-25.25,18.05L131.38,349V332.35l.05,0s21.51-6.53-.35-38.8c0,0-23.13,30.5-.66,38.46v34.58l-9.18-7c.16-3.42-.37-20.8-27.73-19.69,0,0,10.54,26.4,27.16,20.46l2.6,2,7,5.3a.48.48,0,0,0,.17.05V379.8l-14.69-.17,6.18,37.21,17.81-.53L145.54,380l-14.16-.17v-7.07l9.89-5.77c16.62,4.33,26.48-12,26.48-12C140.25,350,139.89,366.58,139.89,366.58Z" style="fill: rgb(38, 50, 56); transform-origin: 131.845px 355.195px;" class="animable"></path></g><g id="freepik--Coffee--inject-12" class="animable" style="transform-origin: 209.989px 410.096px;"><g id="freepik--coffee--inject-12" class="animable" style="transform-origin: 209.989px 410.096px;"><path d="M224.88,414.32c0,3.34-8.11,6.05-18.13,6.05s-18.13-2.71-18.13-6.05,8.12-6,18.13-6S224.88,411,224.88,414.32Z" style="fill: none; stroke: rgb(38, 50, 56); stroke-linecap: round; stroke-linejoin: round; transform-origin: 206.75px 414.345px;" id="eleaovsbj3scr" class="animable"></path><path d="M188.62,414.32s.67,12.31,3.58,19.92,15.53,10.22,22.39,7.17c5.09-2.26,7.66-9.16,9-15.42" style="fill: none; stroke: rgb(38, 50, 56); stroke-linecap: round; stroke-linejoin: round; transform-origin: 206.105px 428.488px;" id="el9cm6z7rmh0i" class="animable"></path><path d="M217.88,435.36c.93,2.37,4.28,2.4,6.37,2.16a7.49,7.49,0,0,0,7.08-7.3,13.12,13.12,0,0,0-2.2-8.16,7.26,7.26,0,0,0-5.71-2.84,3.69,3.69,0,0,0-3.65,4.36,2.23,2.23,0,0,0,.54,1.16c.92,1,2.24.42,3.34.85a3.69,3.69,0,0,1,2,2.54c.43,1.56.65,3-.36,4.34a3.15,3.15,0,0,1-3,1.06c-1-.13-1.84-1-2.88-1a1.7,1.7,0,0,0-1.7,1.84A2.8,2.8,0,0,0,217.88,435.36Z" style="fill: rgb(255, 255, 255); stroke: rgb(38, 50, 56); stroke-linecap: round; stroke-linejoin: round; transform-origin: 224.531px 428.419px;" id="el4xu5jy7rd5j" class="animable"></path><ellipse cx="206.84" cy="415.88" rx="16.52" ry="4.21" style="fill: rgb(38, 50, 56); transform-origin: 206.84px 415.88px;" id="elqymz6m03ieh" class="animable"></ellipse><path d="M202.17,405.1a6.25,6.25,0,0,1-.26-3.45c.47-2,2.12-3.49,3.85-4.58a36,36,0,0,0,5.16-3.32c1.51-1.37,2.6-3.49,2-5.45a22.71,22.71,0,0,0-1.73-3.22,5.58,5.58,0,0,1,.68-5.92,4.76,4.76,0,0,1,5.72-1.09,4.15,4.15,0,0,1,1.59,5.44c-.64,1.12-1.81,1.83-2.55,2.89a4.62,4.62,0,0,0,0,5.08c.76,1.11,2,1.91,2.42,3.2a3.46,3.46,0,0,1-1.36,3.54,7.17,7.17,0,0,1-3.75,1.27,19.36,19.36,0,0,0-4,.53,6.16,6.16,0,0,0-3,9.72c.75.95.06.41-1.12-.26A8.33,8.33,0,0,1,202.17,405.1Z" style="fill: rgb(38, 50, 56); transform-origin: 210.702px 393.903px;" id="elr0r8z8mifj" class="animable"></path><g id="elqdnnhry4iwm"><path d="M202.18,405.09a6.16,6.16,0,0,1-.26-3.45c.47-2,2.12-3.49,3.85-4.58a37.39,37.39,0,0,0,5.15-3.32c1.52-1.37,2.6-3.49,2-5.45a20.85,20.85,0,0,0-1.73-3.22,5.56,5.56,0,0,1,.69-5.92,4.73,4.73,0,0,1,5.72-1.09,4.15,4.15,0,0,1,1.59,5.44c-.65,1.12-1.82,1.83-2.55,2.89a4.58,4.58,0,0,0,0,5.08c.76,1.11,2,1.91,2.41,3.2a3.44,3.44,0,0,1-1.35,3.53,7.16,7.16,0,0,1-3.76,1.28,20.17,20.17,0,0,0-4,.52,6.18,6.18,0,0,0-3,9.73c.76.95.06.41-1.12-.27A8.3,8.3,0,0,1,202.18,405.09Z" style="fill: rgb(255, 255, 255); opacity: 0.7; transform-origin: 210.71px 393.889px;" class="animable"></path></g></g></g><g id="freepik--Window--inject-12" class="animable" style="transform-origin: 218.48px 210.25px;"><g id="freepik--window--inject-12" class="animable" style="transform-origin: 218.48px 210.25px;"><line x1="310.77" y1="310.86" x2="310.77" y2="128.5" style="fill: none; stroke: rgb(38, 50, 56); stroke-linecap: round; stroke-linejoin: round; stroke-width: 1.04959px; transform-origin: 310.77px 219.68px;" id="elh7omesrd98g" class="animable"></line><line x1="170.17" y1="290.86" x2="170.17" y2="109.64" style="fill: none; stroke: rgb(38, 50, 56); stroke-linecap: round; stroke-linejoin: round; stroke-width: 1.04959px; transform-origin: 170.17px 200.25px;" id="el61jluh7mmdt" class="animable"></line><line x1="64.71" y1="211.09" x2="376.11" y2="211.09" style="fill: none; stroke: rgb(38, 50, 56); stroke-linecap: round; stroke-linejoin: round; stroke-width: 1.02057px; transform-origin: 220.41px 211.09px;" id="elq8hbr7j5ck" class="animable"></line><line x1="207.93" y1="174.08" x2="203.7" y2="176.94" style="fill: none; stroke: rgb(38, 50, 56); stroke-linecap: round; stroke-linejoin: round; stroke-width: 0.524794px; transform-origin: 205.815px 175.51px;" id="elv2v0by5ozhg" class="animable"></line><line x1="126.51" y1="227.96" x2="60.85" y2="272.54" style="fill: none; stroke: rgb(38, 50, 56); stroke-linecap: round; stroke-linejoin: round; stroke-width: 1.04959px; transform-origin: 93.68px 250.25px;" id="el8gueo6i64c4" class="animable"></line><line x1="119.4" y1="221.73" x2="103.51" y2="232.51" style="fill: none; stroke: rgb(38, 50, 56); stroke-linecap: round; stroke-linejoin: round; stroke-width: 1.04959px; transform-origin: 111.455px 227.12px;" id="elzqpw23j2fsm" class="animable"></line></g></g><g id="freepik--Clock--inject-12" class="animable" style="transform-origin: 377.16px 133.49px;"><g id="freepik--clock--inject-12" class="animable" style="transform-origin: 377.16px 133.49px;"><g id="elc8madr0b6fo"><circle cx="377.16" cy="133.49" r="34.75" style="fill: rgb(38, 50, 56); transform-origin: 377.16px 133.49px; transform: rotate(-80.69deg);" class="animable"></circle></g><circle cx="377.16" cy="133.49" r="27.55" style="fill: rgb(255, 255, 255); transform-origin: 377.16px 133.49px;" id="elmghr1fqwpo8" class="animable"></circle><path d="M379.48,133.49a2.33,2.33,0,1,1-2.32-2.32A2.32,2.32,0,0,1,379.48,133.49Z" style="fill: rgb(38, 50, 56); transform-origin: 377.15px 133.5px;" id="elkt8vgs6n58" class="animable"></path><line x1="377.5" y1="134.17" x2="377.5" y2="111.52" style="fill: none; stroke: rgb(38, 50, 56); stroke-linecap: round; stroke-linejoin: round; stroke-width: 1.13651px; transform-origin: 377.5px 122.845px;" id="elcw6ye5hv9bs" class="animable"></line><line x1="377.15" y1="133.14" x2="371.89" y2="115.56" style="fill: none; stroke: rgb(38, 50, 56); stroke-linecap: round; stroke-linejoin: round; stroke-width: 1.13651px; transform-origin: 374.52px 124.35px;" id="elbw2in77iav" class="animable"></line></g></g><g id="freepik--Character--inject-12" class="animable" style="transform-origin: 290.481px 269.411px;"><g id="freepik--character--inject-12" class="animable" style="transform-origin: 290.481px 269.411px;"><path d="M190.28,377.69,158.87,254a11.49,11.49,0,0,1,6.33-13.28c27.86-12.73,75-26.38,111.9-25.82a11.51,11.51,0,0,1,11.29,10.6l8.1,102.2a11.52,11.52,0,0,1-7.24,11.62Z" style="fill: rgb(38, 50, 56); transform-origin: 227.52px 296.287px;" id="elptq9r8jot5k" class="animable"></path><g id="elouqo4svtk8"><path d="M190.28,377.69,158.87,254a11.49,11.49,0,0,1,6.33-13.28c27.86-12.73,75-26.38,111.9-25.82a11.51,11.51,0,0,1,11.29,10.6l8.1,102.2a11.52,11.52,0,0,1-7.24,11.62Z" style="opacity: 0.5; transform-origin: 227.52px 296.287px;" class="animable"></path></g><path d="M270,416.64l56.32-23.87a3,3,0,0,0,.59-5.23l-22.18-16a3.07,3.07,0,0,0-2.84-.38l-57.57,21.81a3,3,0,0,0-.78,5.21L267,416.25A3,3,0,0,0,270,416.64Z" style="fill: rgb(38, 50, 56); transform-origin: 285.267px 393.924px;" id="elgz0bmn242gw" class="animable"></path><path d="M295.38,378s18,2.58,20.1,12.41-37.92,10.19-41.43,2.81S289.41,378,295.38,378Z" style="fill: rgb(255, 255, 255); transform-origin: 294.589px 388.162px;" id="el05zyq4znih58" class="animable"></path><path d="M309.41,387s-2.9-13.79-11.12-16.22-27.35.34-27.35.34l-39.8-23.38-25.56,17.6,11.34,4.6-.09.14s1.86.71,4.87,1.8l6.64,2.7.3-.24c10.37,3.59,25.12,8.28,33.75,9.23,0,0,5.31,5.51,10.75,6.56,0,0,3.48.81,5.45.23a9.58,9.58,0,0,1,7,.11c2.78,1.16,12.15,5.54,14.42,4.33s-1.21-5.14-7.58-8.73c0,0,12.74,3.82,15.41,3.82s3.71-.46,3.59-1Z" style="fill: rgb(255, 255, 255); transform-origin: 258.51px 371.375px;" id="elyol27ciikk" class="animable"></path><path d="M223.21,359.16l40.45,20.91c2.6,3,5.87,5.7,9.78,6.51a28.57,28.57,0,0,0,6.34.09,25.4,25.4,0,0,1,18.63,7.81s-1.48.42-4.18-.7-9.71-6-15.64-3.46-16.2-6.79-16.2-6.79-41.66-8.63-55.14-17.62Z" style="fill: rgb(235, 96, 29); transform-origin: 252.83px 376.859px;" id="el6ly4du0x95i" class="animable"></path><g id="el88ejftjol0l"><path d="M223.21,359.16l40.45,20.91c2.6,3,5.87,5.7,9.78,6.51a28.57,28.57,0,0,0,6.34.09,25.4,25.4,0,0,1,18.63,7.81s-1.48.42-4.18-.7-9.71-6-15.64-3.46-16.2-6.79-16.2-6.79-41.66-8.63-55.14-17.62Z" style="fill: rgb(255, 255, 255); opacity: 0.5; transform-origin: 252.83px 376.859px;" class="animable"></path></g><path d="M289.31,384.37s18.87,7,21.33,5.25-7.87-7.5-19.11-11.36" style="fill: none; stroke: rgb(38, 50, 56); stroke-linecap: round; stroke-linejoin: round; transform-origin: 300.158px 384.08px;" id="elbdqulacnzab" class="animable"></path><path d="M297.05,374.7a23.81,23.81,0,0,1,10.24,6.76" style="fill: none; stroke: rgb(38, 50, 56); stroke-linecap: round; stroke-linejoin: round; transform-origin: 302.17px 378.08px;" id="elgk7l4f9z9oe" class="animable"></path><path d="M309,386.55s-2.71-11.25-8.68-15.11-29.83-.26-29.83-.26l-43.25-25.92" style="fill: none; stroke: rgb(38, 50, 56); stroke-linecap: round; stroke-linejoin: round; transform-origin: 268.12px 365.905px;" id="elq5u5fnq63ps" class="animable"></path><path d="M206.36,366c4.32,1.75,9.8,3.85,16.71,6.31,24.57,8.78,39.32,11.24,39.32,11.24s8.66,9.1,17.21,6.32c5.76-1.88,16.5,6.67,20.36,4.91s-5.78-8.47-17.72-13.74" style="fill: none; stroke: rgb(38, 50, 56); stroke-linecap: round; stroke-linejoin: round; transform-origin: 253.592px 380.51px;" id="elzif3xxf780q" class="animable"></path><path d="M327.8,324.49l25.57-29.26s-6.89-12.83-15.46-27.13-18.74-29.94-23.07-35.84c-12.06-5.89,5,66.6,5,66.6Z" style="fill: rgb(235, 96, 29); transform-origin: 331.949px 278.205px;" id="elmo9o56oip8d" class="animable"></path><path d="M353.9,296.56C343,272.84,314.84,231.9,314.84,231.9" style="fill: none; stroke: rgb(38, 50, 56); stroke-linecap: round; stroke-linejoin: round; transform-origin: 334.37px 264.23px;" id="el0s3gjcyhu96o" class="animable"></path><path d="M224.53,315.15l22.13,41.34L317.3,329,320,296.2c4-27.8-5.2-64.37-5.2-64.37l-46-9.89s-66,22.61-67,26.89S224.53,315.15,224.53,315.15Z" style="fill: rgb(235, 96, 29); transform-origin: 261.388px 289.215px;" id="elu5xq8faw89e" class="animable"></path><path d="M224.53,315.15l22.13,41.34L317.3,329,320,296.2c4-27.8-5.2-64.37-5.2-64.37l-46-9.89s-66,22.61-67,26.89S224.53,315.15,224.53,315.15Z" style="fill: none; stroke: rgb(38, 50, 56); stroke-miterlimit: 10; transform-origin: 261.388px 289.215px;" id="el48egbvfql0r" class="animable"></path><g id="elz8wa0rtvtp"><path d="M210.73,260.93c1.69,3.6,10,22.29,13,27,4-33.93,2.61-37.66,5.66-39.44l14.2-8.28-7.42-4.53-.34-1.54S206.68,245.22,202,249C202,249,205.46,249.75,210.73,260.93Z" style="opacity: 0.2; transform-origin: 222.795px 261.035px;" class="animable"></path></g><g id="eld52cmz1p0dc"><path d="M352.29,295.3c3.09-1.8-7.08,1.24-10.26,2.89-2.59,1.34-5.39,3.17-8.19,2.35s-4.27-4.11-5-7c-2.3-9-2.46-18.4-4.44-27.47a125.94,125.94,0,0,0-6.09-18.79s4.47,27.95,1.58,49.95L327,322S326.42,310.44,352.29,295.3Z" style="opacity: 0.2; transform-origin: 335.589px 284.64px;" class="animable"></path></g><path d="M189.69,347.74a54.91,54.91,0,0,0,41.66-10s-.53-31.85-3.62-39.92c-4-10.37-21.93-50.87-25.78-48.82-2.73,1.45-8.36,45.37-11,74.4C189.88,335.44,189.32,345,189.69,347.74Z" style="fill: rgb(235, 96, 29); transform-origin: 210.463px 298.706px;" id="elvm2ttf81i0p" class="animable"></path><path d="M189.69,347.74a54.91,54.91,0,0,0,41.66-10s-.53-31.85-3.62-39.92c-4-10.37-21.93-50.87-25.78-48.82-2.73,1.45-8.36,45.37-11,74.4C189.88,335.44,189.32,345,189.69,347.74Z" style="fill: none; stroke: rgb(38, 50, 56); stroke-miterlimit: 10; transform-origin: 210.463px 298.706px;" id="eluby57qk469m" class="animable"></path><path d="M231.74,289.59a51,51,0,0,1,1.72,26.62" style="fill: none; stroke: rgb(38, 50, 56); stroke-linecap: round; stroke-linejoin: round; transform-origin: 233.109px 302.9px;" id="eln876t79llw" class="animable"></path><path d="M208.77,323.22A24.83,24.83,0,0,1,227,328.51" style="fill: none; stroke: rgb(38, 50, 56); stroke-linecap: round; stroke-linejoin: round; transform-origin: 217.885px 325.79px;" id="elmc8r63wgn3a" class="animable"></path><path d="M216.81,318.39A32.74,32.74,0,0,1,231,331.29" style="fill: none; stroke: rgb(38, 50, 56); stroke-linecap: round; stroke-linejoin: round; transform-origin: 223.905px 324.84px;" id="el87r8bel3khr" class="animable"></path><g id="el0v7y5vqpmxcl"><path d="M208,255.42c4.88,9.21,2.49,20.7,3.73,31.05.67,5.58,1.39,11.31,4.09,16.24,2,3.58,4.89,6.55,7.21,9.91a34.9,34.9,0,0,1,5.54,13.44c-6.21-6.26-13-12.83-21.66-14.44,4.12,2.1,9.85,6.92,8.38,8.44-2.88,2.72-6.43-3.57-9.4-1.8a6.35,6.35,0,0,0-2.39,3.61,30,30,0,0,0-1.38,12.5l-13.24,6.11s8-84.57,13.08-91.51A16.43,16.43,0,0,1,208,255.42Z" style="opacity: 0.2; transform-origin: 208.725px 294.725px;" class="animable"></path></g><path d="M316.46,266a235.25,235.25,0,0,1,4.09,25.47" style="fill: none; stroke: rgb(38, 50, 56); stroke-linecap: round; stroke-linejoin: round; transform-origin: 318.505px 278.735px;" id="elt8ndoemvo4l" class="animable"></path><path d="M206.87,366.73s26.22-10.82,29-15-3.63-18.89-6.79-21.35-43.07,5.15-42,13.23,4.1,7.21,2.89,14C189.18,362.06,194.55,372,206.87,366.73Z" style="fill: rgb(255, 255, 255); transform-origin: 211.806px 349.071px;" id="elymf4ksrg48" class="animable"></path><path d="M223.46,358.65c3.69-2.85-9.18,1.82-13.84,1.55-1.52-.09-3.22-.37-4.13-1.59a3.65,3.65,0,0,1-.25-3.47,7.89,7.89,0,0,1,2.22-2.82,28.65,28.65,0,0,1,8.67-5c1.38-.53,3.65-1,3-2.86-1.32-2-5,.05-7.31,1.06s-5.24,1.84-7.25.28c-1.65-1.28-1.94-3.79-1.14-5.72a10.91,10.91,0,0,1,4.16-4.55,4.38,4.38,0,0,0,1.57-1.51,1.36,1.36,0,0,0-.56-1.87s-19,5.19-20.37,10.08,2.27,11.34,2.27,11.34S188.24,361.67,194,366,214.91,365.27,223.46,358.65Z" style="fill: rgb(235, 96, 29); transform-origin: 206.019px 349.88px;" id="elg3kc84hqpus" class="animable"></path><g id="elbzod5o801ss"><path d="M223.46,358.65c3.69-2.85-9.18,1.82-13.84,1.55-1.52-.09-3.22-.37-4.13-1.59a3.65,3.65,0,0,1-.25-3.47,7.89,7.89,0,0,1,2.22-2.82,28.65,28.65,0,0,1,8.67-5c1.38-.53,3.65-1,3-2.86-1.32-2-5,.05-7.31,1.06s-5.24,1.84-7.25.28c-1.65-1.28-1.94-3.79-1.14-5.72a10.91,10.91,0,0,1,4.16-4.55,4.38,4.38,0,0,0,1.57-1.51,1.36,1.36,0,0,0-.56-1.87s-19,5.19-20.37,10.08,2.27,11.34,2.27,11.34-1.92,8.07,3.84,12.43S214.91,365.27,223.46,358.65Z" style="fill: rgb(255, 255, 255); opacity: 0.7; transform-origin: 206.019px 349.887px;" class="animable"></path></g><path d="M207.25,366.73s26.23-10.82,29-15-3.62-18.89-6.78-21.35-43.08,5.15-42,13.23,4.1,7.21,2.9,14C189.57,362.06,194.93,372,207.25,366.73Z" style="fill: none; stroke: rgb(38, 50, 56); stroke-miterlimit: 10; transform-origin: 212.189px 349.071px;" id="el1y4cbwqyzg5" class="animable"></path><path d="M331,330.65c-.25-.21-.49-.42-.72-.65-6.66-6.49-2.44-14.68,3-20.36,5-5.24,13.92-13.22,21.44-14.12,3.39-.41,4.9,1.47,6.87,3.85,1.13,1.36,2.53,2.49,3.62,3.89a12.21,12.21,0,0,1-.44,15.19c-3.12,3.45-7.41,4.72-11.53,6.47-5,2.11-9.66,5.6-14.74,7.33A7.85,7.85,0,0,1,331,330.65Z" style="fill: rgb(255, 255, 255); transform-origin: 347.256px 314.032px;" id="elnmzb39il9vq" class="animable"></path><path d="M352.4,324.39c4-3.09,8-6.19,10.72-10.43a10.21,10.21,0,0,0,1.94-5.3c0-1.91-1.16-3.93-3-4.35-1.5-.35-3,.39-4.4,1.11l-4.18,2.18a2.43,2.43,0,0,1-1.63.4c-.8-.2-1.16-1.14-1.21-2-.13-2.29,1.15-4.4,2.39-6.33l2.28-3.58a.89.89,0,0,0-1.1-.09,35.92,35.92,0,0,0-19.78,12.64c-8,10.4-8.67,14-6.07,18.9S335.59,337.46,352.4,324.39Z" style="fill: rgb(235, 96, 29); transform-origin: 346.03px 314.286px;" id="elgw9yb3mgbur" class="animable"></path><g id="elwgkusduuxc"><path d="M352.4,324.39c4-3.07,8-6.19,10.72-10.43a10.21,10.21,0,0,0,1.94-5.3c0-1.91-1.16-3.93-3-4.35-1.5-.35-3,.39-4.4,1.11l-4.18,2.18a2.43,2.43,0,0,1-1.63.4c-.8-.2-1.16-1.14-1.21-2-.13-2.29,1.15-4.4,2.39-6.33l2.28-3.58a.89.89,0,0,0-1.1-.09,35.92,35.92,0,0,0-19.78,12.64c-8,10.4-8.67,14-6.07,18.9S335.79,337.16,352.4,324.39Z" style="fill: rgb(255, 255, 255); opacity: 0.7; transform-origin: 346.03px 314.228px;" class="animable"></path></g><path d="M331,330.65c-.25-.21-.49-.42-.72-.65-6.66-6.49-2.44-14.68,3-20.36,5-5.24,13.92-13.22,21.44-14.12,3.39-.41,4.9,1.47,6.87,3.85,1.13,1.36,2.53,2.49,3.62,3.89a12.21,12.21,0,0,1-.44,15.19c-3.12,3.45-7.41,4.72-11.53,6.47-5,2.11-9.66,5.6-14.74,7.33A7.85,7.85,0,0,1,331,330.65Z" style="fill: none; stroke: rgb(38, 50, 56); stroke-miterlimit: 10; transform-origin: 347.256px 314.032px;" id="elrv9lz1arltg" class="animable"></path><path d="M231.17,144.19a18.26,18.26,0,0,1,4.16-13.64,27.1,27.1,0,0,1,12-8.12" style="fill: none; stroke: rgb(38, 50, 56); stroke-linecap: round; stroke-linejoin: round; transform-origin: 239.2px 133.31px;" id="elxlof6k593wo" class="animable"></path><path d="M276.69,210.09c-.63,7.49-.87,25.14-.43,32.65L248,229.56c1-6.79,1.37-19.13-.32-25.78l29,6.31" style="fill: rgb(255, 255, 255); transform-origin: 262.185px 223.26px;" id="ele63c2qzip8i" class="animable"></path><path d="M276.69,210.09c-.63,7.49-.87,25.14-.43,32.65L248,229.56c1-6.79,1.37-19.13-.32-25.78l29,6.31" style="fill: none; stroke: rgb(38, 50, 56); stroke-miterlimit: 10; transform-origin: 262.185px 223.26px;" id="elcwvnah1legh" class="animable"></path><path d="M249,208.09s8.36,15.52,17.14,15.81c8.58.27,10.5-12.51,10.5-12.51s-3.56,6.76-7.43,6.61S249,208.09,249,208.09Z" style="fill: rgb(38, 50, 56); transform-origin: 262.82px 215.997px;" id="elolbdlswcgb" class="animable"></path><path d="M285.6,144.22s-36.52-7.82-46.85,1.73S231,166.14,231,166.14l.94,3.07a3.44,3.44,0,0,0-.78.08c-2.75.65-5.54,4-4.62,8.79s6.78,15.31,11.1,14.19a5.45,5.45,0,0,0,1.4-.57c1.44,4.33,2.71,7.92,3.4,9.38,2.75,5.8,23.68,17.87,28.59,16.2s17.79-26.68,18.42-32.72S285.6,144.22,285.6,144.22Z" style="fill: rgb(255, 255, 255); transform-origin: 257.936px 179.321px;" id="eljosqd52h5q" class="animable"></path><path d="M286,149.57c-4.42,4.69-11.73,5.27-18.07,4.11s-12.42-3.73-18.85-4.23a10,10,0,0,0-5.2.67c-2.64,1.28-4,4.39-4,7.33s1,5.76,2,8.52,2,5.59,2,8.52c0,1.36-.28,2.69-.33,4a46.25,46.25,0,0,0,2.88,16.58c4.29,11.95,15.33,16.77,26.4,21,0,0-4,3.31-11.9-.9-2.77-1.47-13.23-8.52-13.23-8.52a16.32,16.32,0,0,1-6.82-9l-2-6.28a4.42,4.42,0,0,1-5.93-1.08c-2.87-3.23-7.17-9.15-6.81-13.81s1.19-6.68,5.55-7a6,6,0,0,1,5.93,3.38l-3.41-20.28s10.23-9.69,17.58-8.25,24,4.12,28.17,3.05a42.85,42.85,0,0,0,5.75-1.8Z" style="fill: rgb(235, 96, 29); transform-origin: 256.059px 180.745px;" id="elbi7aji08lya" class="animable"></path><g id="elfi47r804i4f"><path d="M286,149.57c-4.42,4.69-11.73,5.27-18.07,4.11s-12.42-3.73-18.85-4.23a10,10,0,0,0-5.2.67c-2.64,1.28-4,4.39-4,7.33s1,5.76,2,8.52,2,5.59,2,8.52c0,1.36-.28,2.69-.33,4a46.25,46.25,0,0,0,2.88,16.58c4.29,11.95,15.32,16.75,26.38,21,0,0-4.1,3.24-10.36-.25-2.74-1.53-14.75-9.15-14.75-9.15a16.32,16.32,0,0,1-6.82-9l-2-6.28a4.42,4.42,0,0,1-5.93-1.08c-2.87-3.23-7.17-9.15-6.81-13.81s.76-6.18,5.12-6.47a7,7,0,0,1,6.36,2.88l-3.41-20.28s10.23-9.69,17.58-8.25,24,4.12,28.17,3.05a42.85,42.85,0,0,0,5.75-1.8Z" style="fill: rgb(255, 255, 255); opacity: 0.5; transform-origin: 256.059px 180.836px;" class="animable"></path></g><path d="M265.69,177c0,1.75-.64,3.18-1.43,3.18s-1.44-1.42-1.44-3.18.64-3.17,1.43-3.18S265.69,175.26,265.69,177Z" style="fill: rgb(38, 50, 56); transform-origin: 264.255px 177px;" id="elpdo5g485sfk" class="animable"></path><path d="M281.55,176.19c0,1.75-.64,3.18-1.43,3.18s-1.43-1.43-1.44-3.18.64-3.18,1.44-3.18S281.55,174.43,281.55,176.19Z" style="fill: rgb(38, 50, 56); transform-origin: 280.115px 176.19px;" id="eldgw330ee3jc" class="animable"></path><path d="M276.75,198.71a20,20,0,0,0-7.38.49" style="fill: none; stroke: rgb(38, 50, 56); stroke-linecap: round; stroke-linejoin: round; transform-origin: 273.06px 198.883px;" id="eltjuu447bsh" class="animable"></path><path d="M259.52,182.51c1.27,2.06,4.2,2.06,5.94.64a10,10,0,0,0,1.85-2.39" style="fill: none; stroke: rgb(38, 50, 56); stroke-linecap: round; stroke-linejoin: round; stroke-width: 0.5px; transform-origin: 263.415px 182.453px;" id="elzyqnnbwpmls" class="animable"></path><path d="M277.28,180.87a5.19,5.19,0,0,0,3.93,2.36,5.08,5.08,0,0,0,2.78-.59" style="fill: none; stroke: rgb(38, 50, 56); stroke-linecap: round; stroke-linejoin: round; stroke-width: 0.5px; transform-origin: 280.635px 182.057px;" id="elsmf4koj5p" class="animable"></path><path d="M258.56,170.9a20.24,20.24,0,0,0,9-4.35" style="fill: none; stroke: rgb(38, 50, 56); stroke-linecap: round; stroke-linejoin: round; stroke-width: 2px; transform-origin: 263.06px 168.725px;" id="eluds8lm0gqgo" class="animable"></path><path d="M278.3,163.23a14.54,14.54,0,0,0,4.84,3.79" style="fill: none; stroke: rgb(38, 50, 56); stroke-linecap: round; stroke-linejoin: round; stroke-width: 2px; transform-origin: 280.72px 165.125px;" id="ela6yq2oe2x8g" class="animable"></path><path d="M272.8,174.57q.43,3.1.88,6.21a8.61,8.61,0,0,0,.64,2.61,4.5,4.5,0,0,0,3.9,2.49,2.67,2.67,0,0,1,1.41.2,1.36,1.36,0,0,1,.57,1.23,3.43,3.43,0,0,1-1.1,2.1,14.56,14.56,0,0,1-3.49,2.81" style="fill: none; stroke: rgb(38, 50, 56); stroke-linecap: round; stroke-linejoin: round; transform-origin: 276.503px 183.395px;" id="ele9nxfgutw47" class="animable"></path><path d="M231.14,175.59a12.4,12.4,0,0,1,4.32,11.34" style="fill: none; stroke: rgb(38, 50, 56); stroke-linecap: round; stroke-linejoin: round; transform-origin: 233.367px 181.26px;" id="el4eka0kgjnf" class="animable"></path><path d="M230.55,180.82a1.56,1.56,0,0,1,1.14-.89,3.57,3.57,0,0,1,1.49,0,3.24,3.24,0,0,1,1,.33,2,2,0,0,1,.82,1.07" style="fill: none; stroke: rgb(38, 50, 56); stroke-linecap: round; stroke-linejoin: round; transform-origin: 232.775px 180.591px;" id="elpn16ds68uya" class="animable"></path><path d="M240.48,184.84s2.18,6.24-3.22,7.63c-4.31,1.12-10.17-9.39-11.1-14.19a8,8,0,0,1,1.65-6.93,5.75,5.75,0,0,1,3-1.85c3.19-.76,6.37,3.11,8.38,6.29a28.45,28.45,0,0,0,2,2.92" style="fill: none; stroke: rgb(38, 50, 56); stroke-linecap: round; stroke-linejoin: round; transform-origin: 233.572px 180.978px;" id="elaath7m8yyvj" class="animable"></path><path d="M238.67,191.89c1.44,4.35,2.7,7.93,3.39,9.39,2.75,5.81,23.68,17.87,28.59,16.2s17.79-26.68,18.43-32.72-3.82-40.34-3.82-40.34-36.52-7.82-46.85,1.73-7.79,20.19-7.79,20.19" style="fill: none; stroke: rgb(38, 50, 56); stroke-miterlimit: 10; transform-origin: 259.743px 179.521px;" id="el6d5aijajx6l" class="animable"></path><path d="M294.06,127.74s5.64,11.74-1.56,19.73-23.66,1.41-23.66,1.41" style="fill: none; stroke: rgb(38, 50, 56); stroke-linecap: round; stroke-linejoin: round; transform-origin: 282.501px 139.584px;" id="elovlr3gpjwo9" class="animable"></path><path d="M287.21,122.39c-2.28.93,1.62,4.93-3.24,6.16s-43.44-16.68-53.15,14.52c0,0-17.29,12.28-3,28.28a5.75,5.75,0,0,1,3-1.85c3.1-.73,6.18,2.89,8.2,6,.9,2.6,2.31,4.93,4.46,4.14,3.92-1.42,2.6-6.33,1-9.92-.51-1.14-1.06-2.14-1.47-2.86-2.46-4.28-6.1-9-4.44-14.19,3.32-6.23,13.41-7.21,23-4.76,15.88,4.05,34.46-1.75,34.17-13.19S289.49,121.46,287.21,122.39Z" style="fill: rgb(38, 50, 56); transform-origin: 258.953px 150.988px;" id="ellrm5u7asbnk" class="animable"></path><g id="el3fkua0evjj4"><path d="M294.49,127.53a.6.6,0,0,0-.09-.13c-1.94-4.89-5.53-5.69-7.19-5-2.28.93,1.62,4.93-3.24,6.16s-41.62-15.83-52.4,12.39a18.36,18.36,0,0,1,4.13-10.09,26.57,26.57,0,0,1,11.77-8,.48.48,0,0,0-.32-.9A27.47,27.47,0,0,0,235,130.25a19,19,0,0,0-4.4,12.19,18.37,18.37,0,0,0-14.07,13.92.48.48,0,0,0,.36.57h.1a.48.48,0,0,0,.47-.37,17.46,17.46,0,0,1,12.88-13.1c-2.76,2.22-15.28,13.55-2.49,27.88a5.75,5.75,0,0,1,3-1.85c3.1-.73,6.18,2.89,8.2,6,.9,2.6,2.31,4.93,4.46,4.14,3.92-1.42,2.6-6.33,1-9.92-.51-1.14-1.06-2.14-1.47-2.86-2.46-4.28-6.1-9-4.44-14.19,3.32-6.23,13.41-7.21,23-4.76a41.33,41.33,0,0,0,6.88,1.14.53.53,0,0,0,.26.27,40,40,0,0,0,13.08,2.6c4.08,0,8.26-1,11.11-4.14C300.18,139.66,294.55,127.65,294.49,127.53Zm-2.35,19.62c-5.35,5.94-16.21,3.48-20.89,2,12.21.19,23.47-4.79,24.38-13.12A14.68,14.68,0,0,1,292.14,147.15Z" style="opacity: 0.5; transform-origin: 256.574px 150.866px;" class="animable"></path></g><path d="M236.39,149.44c2.55-4.8,8.28-7.16,13.71-7.37s10.75,1.34,16,2.51,10.93,2,16.1.29,9.68-6.49,9.34-11.91" style="fill: none; stroke: rgb(255, 255, 255); stroke-linecap: round; stroke-linejoin: round; stroke-width: 0.5px; transform-origin: 263.974px 141.2px;" id="elvby63tkmdui" class="animable"></path><path d="M235.35,146c.91-3.58,3.75-6.36,6.8-8.45a35.1,35.1,0,0,1,15.68-5.88" style="fill: none; stroke: rgb(255, 255, 255); stroke-linecap: round; stroke-linejoin: round; stroke-width: 0.5px; transform-origin: 246.59px 138.835px;" id="elyb55o6ocq9i" class="animable"></path><path d="M265.26,240.17c.4-.4,11.59-2.45,11.59-2.45s-1.91,13.23-1,18l-4.63.82s-4.5-8.32-8.05-10.91S265.26,240.17,265.26,240.17Z" style="fill: rgb(38, 50, 56); transform-origin: 269.424px 247.13px;" id="elqqni92pfzvr" class="animable"></path><polygon points="271.9 254.34 271.97 310.49 284.63 320.06 290.01 306.52 274.44 253.12 271.9 254.34" style="fill: rgb(38, 50, 56); transform-origin: 280.955px 286.59px;" id="elfctupmohn7" class="animable"></polygon><path d="M271.49,231l6.19-8.25a1,1,0,0,1,1.57-.12l7.91,7.91a1,1,0,0,1,.17,1.25l-9.5,16.94a1,1,0,0,1-1.91-.24l-4.6-16.59A1.07,1.07,0,0,1,271.49,231Z" style="fill: rgb(255, 255, 255); transform-origin: 279.381px 235.823px;" id="el1y76zjca001" class="animable"></path><path d="M271.49,231l6.19-8.25a1,1,0,0,1,1.57-.12l7.91,7.91a1,1,0,0,1,.17,1.25l-9.5,16.94a1,1,0,0,1-1.91-.24l-4.6-16.59A1.07,1.07,0,0,1,271.49,231Z" style="fill: none; stroke: rgb(38, 50, 56); stroke-linecap: round; stroke-linejoin: round; transform-origin: 279.381px 235.823px;" id="el9r49vb3i72p" class="animable"></path><path d="M246.21,221.46l24,9.56a1,1,0,0,1,.6,1.32l-6.16,17.42a1,1,0,0,1-1.48.57l-27-14.65a1,1,0,0,1-.34-1.54L245,221.81A1,1,0,0,1,246.21,221.46Z" style="fill: rgb(255, 255, 255); transform-origin: 253.242px 235.929px;" id="el57qcaqp8gdi" class="animable"></path><path d="M246.21,221.46l24,9.56a1,1,0,0,1,.6,1.32l-6.16,17.42a1,1,0,0,1-1.48.57l-27-14.65a1,1,0,0,1-.34-1.54L245,221.81A1,1,0,0,1,246.21,221.46Z" style="fill: none; stroke: rgb(38, 50, 56); stroke-linecap: round; stroke-linejoin: round; transform-origin: 253.242px 235.929px;" id="elj9gx1o9yds" class="animable"></path><line x1="326.8" y1="322.27" x2="319.7" y2="298.66" style="fill: none; stroke: rgb(38, 50, 56); stroke-miterlimit: 10; transform-origin: 323.25px 310.465px;" id="elq6e8jm2zdpo" class="animable"></line><path d="M341.39,330.37l-49,20.58a3,3,0,0,0-.49,5.24l37.83,25.15,24.61-24.57Z" style="fill: rgb(255, 255, 255); stroke: rgb(38, 50, 56); stroke-miterlimit: 10; transform-origin: 322.46px 355.855px;" id="elkygfqpbhrt" class="animable"></path><path d="M321,352l-5.89,2.31,3.16,2.23,5.9-2.31Zm0,0-5.89,2.31,3.16,2.23,5.9-2.31Zm0,0-5.89,2.31,3.16,2.23,5.9-2.31Zm4,2.83-5.9,2.3,3.43,2.42,5.91-2.31Zm0,0-5.9,2.3,3.43,2.42,5.91-2.31Zm0,0-5.9,2.3,3.43,2.42,5.91-2.31Zm0,0-5.9,2.3,3.43,2.42,5.91-2.31Zm0,0-5.9,2.3,3.43,2.42,5.91-2.31Zm0,0-5.9,2.3,3.43,2.42,5.91-2.31Zm0,0-5.9,2.3,3.43,2.42,5.91-2.31ZM311.78,360l3.49,2.39,6.29-2.46-3.43-2.41ZM325,354.86l-5.9,2.3,3.43,2.42,5.91-2.31Zm0,0-5.9,2.3,3.43,2.42,5.91-2.31Zm0,0-5.9,2.3,3.43,2.42,5.91-2.31Zm0,0-5.9,2.3,3.43,2.42,5.91-2.31Zm0,0-5.9,2.3,3.43,2.42,5.91-2.31Zm0,0-5.9,2.3,3.43,2.42,5.91-2.31Zm4.28,3-5.9,2.31,3.93,2.76,5.9-2.31Zm1-.38,3.94,2.77.28-.12,1.1-4.72Zm-.84-.59-1,.38.84.59,1-.38Zm-.12,1-5.9,2.31,3.93,2.76,5.9-2.31Zm0,0-5.9,2.31,3.93,2.76,5.9-2.31Zm0,0-5.9,2.31,3.93,2.76,5.9-2.31Zm5.76-3.18.6.42.17-.71Zm-5.64,2.21-1,.38.84.59,1-.38Zm2.21-4.62L326,354.48l3.43,2.41,5.64-2.21Zm-2.21,4.62-1,.38.84.59,1-.38Zm-.12,1-5.9,2.31,3.93,2.76,5.9-2.31Zm.12-1-1,.38.84.59,1-.38Zm-.12,1-5.9,2.31,3.93,2.76,5.9-2.31Zm0,0-5.9,2.31,3.93,2.76,5.9-2.31Zm1-.38,3.94,2.77-1,.37.85.59-5.91,2.32-.84-.6-1,.38.85.59L321,366.32l3,2.08,6.13-2.4.86.6L324.9,369l4,2.75,2.43,1.66.66-2.87.65-2.77.21-.89.25-1.1.24-1,.8-3.44,0-.16.18-.74.06-.28,1.1-4.72Zm-1,.38-5.9,2.31,3.93,2.76,5.9-2.31Zm.12-1-1,.38.84.59,1-.38Zm-.12,1-5.9,2.31,3.93,2.76,5.9-2.31Zm.12-1-1,.38.84.59,1-.38Zm-.12,1-5.9,2.31,3.93,2.76,5.9-2.31Zm.12-1-1,.38.84.59,1-.38Zm-.12,1-5.9,2.31,3.93,2.76,5.9-2.31Zm.12-1-1,.38.84.59,1-.38Zm3.17-5,3.27,2.3.92-3.94Zm-5-2.45-5.65,2.21-.84-.6,5.64-2.2.85.59,1-.38-.85-.59,6-2.33-3-2.13-5.95,2.35-1,.37L318.12,349l-1,.38-5.88,2.32-1,.38-6.48,2.55,3,2.05,6.43-2.52.85.6-6.42,2.51,3.22,2.2,6.37-2.48.84.59,1-.38-.84-.59,5.9-2.31.84.6,1-.38-.85-.6,5.64-2.21Zm-12.5,4.89-.86-.59,5.91-2.31.84.59Zm19.55-8.57-1,.38.85.59,1-.38Zm.84.59,1.88,1.32.51-2.25Zm-3.87-2.72,3,2.13,3.47-1.36.86-3.67Zm-2.22,13.25-1,.38.84.59,1-.38Zm1.36-5.22-3.16-2.22-5.65,2.21-1,.37,3.17,2.23.84.6,1-.38-.85-.6Zm.85.6L326,354.48l3.43,2.41,5.64-2.21Zm5.54-3.69-2.61-1.84-6,2.33,3.16,2.23-.95.37.84.6,1-.37-.84-.6,5.27-2.06Zm-7.75,8.31,5.64-2.21-3.43-2.41L326,354.48Zm1.36-5.22-3.16-2.22-5.65,2.21-1,.37,3.17,2.23.84.6,1-.38-.85-.6Zm-1.48,6.19-5.9,2.31,3.93,2.76,5.9-2.31Zm0,0-5.9,2.31,3.93,2.76,5.9-2.31Zm-4.28-3-5.9,2.3,3.43,2.42,5.91-2.31Zm-2.57,5.68L316.13,363l4,2.73,6.2-2.42Zm.1-1-1,.37.86.59.95-.37Zm6.75-1.72-5.9,2.31,3.93,2.76,5.9-2.31Zm1-.38,3.94,2.77.28-.12,1.1-4.72Zm-.84-.59-1,.38.84.59,1-.38ZM321,352l-5.89,2.31,3.16,2.23,5.9-2.31Zm0,0-5.89,2.31,3.16,2.23,5.9-2.31Zm0,0-5.89,2.31,3.16,2.23,5.9-2.31Z" style="fill: rgb(38, 50, 56); transform-origin: 321.36px 357.085px;" id="elele4u6eo3x" class="animable"></path><path d="M329.77,381.34l13.47-58.88a7.09,7.09,0,0,1,4.16-4.95L419.76,287a1.94,1.94,0,0,1,2.61,2.34L405,347.94Z" style="fill: rgb(235, 96, 29); stroke: rgb(38, 50, 56); stroke-miterlimit: 10; transform-origin: 376.11px 334.095px;" id="elfvu2yx9p31b" class="animable"></path><path d="M384.12,327.08c2.07,1.19,2.51,4.3,1,6.94s-4.44,3.81-6.51,2.62-2.51-4.3-1-6.94S382.05,325.88,384.12,327.08Z" style="fill: rgb(38, 50, 56); transform-origin: 381.365px 331.858px;" id="elejustlodecn" class="animable"></path></g></g><defs>     <filter id="active" height="200%">         <feMorphology in="SourceAlpha" result="DILATED" operator="dilate" radius="2"></feMorphology>                <feFlood flood-color="#32DFEC" flood-opacity="1" result="PINK"></feFlood>        <feComposite in="PINK" in2="DILATED" operator="in" result="OUTLINE"></feComposite>        <feMerge>            <feMergeNode in="OUTLINE"></feMergeNode>            <feMergeNode in="SourceGraphic"></feMergeNode>        </feMerge>    </filter>    <filter id="hover" height="200%">        <feMorphology in="SourceAlpha" result="DILATED" operator="dilate" radius="2"></feMorphology>                <feFlood flood-color="#ff0000" flood-opacity="0.5" result="PINK"></feFlood>        <feComposite in="PINK" in2="DILATED" operator="in" result="OUTLINE"></feComposite>        <feMerge>            <feMergeNode in="OUTLINE"></feMergeNode>            <feMergeNode in="SourceGraphic"></feMergeNode>        </feMerge>            <feColorMatrix type="matrix" values="0   0   0   0   0                0   1   0   0   0                0   0   0   0   0                0   0   0   1   0 "></feColorMatrix>    </filter></defs></svg>